<svg xmlns="http://www.w3.org/2000/svg" width="22.0in" height="22.0in" viewBox="0 0 22.0 22.0">
<rect x="0" y="0" width="22.0" height="22.0" fill="white"/>
<line x1="1.0000" y1="1.0000" x2="1.0000" y2="21.0000" stroke="black" stroke-width="0.0080"/>
<line x1="2.0000" y1="1.0000" x2="2.0000" y2="21.0000" stroke="black" stroke-width="0.0080"/>
<line x1="3.0000" y1="1.0000" x2="3.0000" y2="21.0000" stroke="black" stroke-width="0.0080"/>
<line x1="4.0000" y1="1.0000" x2="4.0000" y2="21.0000" stroke="black" stroke-width="0.0080"/>
<line x1="5.0000" y1="1.0000" x2="5.0000" y2="21.0000" stroke="black" stroke-width="0.0080"/>
<line x1="6.0000" y1="1.0000" x2="6.0000" y2="21.0000" stroke="black" stroke-width="0.0080"/>
<line x1="7.0000" y1="1.0000" x2="7.0000" y2="21.0000" stroke="black" stroke-width="0.0080"/>
<line x1="8.0000" y1="1.0000" x2="8.0000" y2="21.0000" stroke="black" stroke-width="0.0080"/>
<line x1="9.0000" y1="1.0000" x2="9.0000" y2="21.0000" stroke="black" stroke-width="0.0080"/>
<line x1="10.0000" y1="1.0000" x2="10.0000" y2="21.0000" stroke="black" stroke-width="0.0080"/>
<line x1="11.0000" y1="1.0000" x2="11.0000" y2="21.0000" stroke="black" stroke-width="0.0450"/>
<line x1="12.0000" y1="1.0000" x2="12.0000" y2="21.0000" stroke="black" stroke-width="0.0080"/>
<line x1="13.0000" y1="1.0000" x2="13.0000" y2="21.0000" stroke="black" stroke-width="0.0080"/>
<line x1="14.0000" y1="1.0000" x2="14.0000" y2="21.0000" stroke="black" stroke-width="0.0080"/>
<line x1="15.0000" y1="1.0000" x2="15.0000" y2="21.0000" stroke="black" stroke-width="0.0080"/>
<line x1="16.0000" y1="1.0000" x2="16.0000" y2="21.0000" stroke="black" stroke-width="0.0080"/>
<line x1="17.0000" y1="1.0000" x2="17.0000" y2="21.0000" stroke="black" stroke-width="0.0080"/>
<line x1="18.0000" y1="1.0000" x2="18.0000" y2="21.0000" stroke="black" stroke-width="0.0080"/>
<line x1="19.0000" y1="1.0000" x2="19.0000" y2="21.0000" stroke="black" stroke-width="0.0080"/>
<line x1="20.0000" y1="1.0000" x2="20.0000" y2="21.0000" stroke="black" stroke-width="0.0080"/>
<line x1="21.0000" y1="1.0000" x2="21.0000" y2="21.0000" stroke="black" stroke-width="0.0080"/>
<line x1="1.0000" y1="1.0000" x2="21.0000" y2="1.0000" stroke="black" stroke-width="0.0080"/>
<line x1="1.0000" y1="2.0000" x2="21.0000" y2="2.0000" stroke="black" stroke-width="0.0080"/>
<line x1="1.0000" y1="3.0000" x2="21.0000" y2="3.0000" stroke="black" stroke-width="0.0080"/>
<line x1="1.0000" y1="4.0000" x2="21.0000" y2="4.0000" stroke="black" stroke-width="0.0080"/>
<line x1="1.0000" y1="5.0000" x2="21.0000" y2="5.0000" stroke="black" stroke-width="0.0080"/>
<line x1="1.0000" y1="6.0000" x2="21.0000" y2="6.0000" stroke="black" stroke-width="0.0080"/>
<line x1="1.0000" y1="7.0000" x2="21.0000" y2="7.0000" stroke="black" stroke-width="0.0080"/>
<line x1="1.0000" y1="8.0000" x2="21.0000" y2="8.0000" stroke="black" stroke-width="0.0080"/>
<line x1="1.0000" y1="9.0000" x2="21.0000" y2="9.0000" stroke="black" stroke-width="0.0080"/>
<line x1="1.0000" y1="10.0000" x2="21.0000" y2="10.0000" stroke="black" stroke-width="0.0080"/>
<line x1="1.0000" y1="11.0000" x2="21.0000" y2="11.0000" stroke="black" stroke-width="0.0450"/>
<line x1="1.0000" y1="12.0000" x2="21.0000" y2="12.0000" stroke="black" stroke-width="0.0080"/>
<line x1="1.0000" y1="13.0000" x2="21.0000" y2="13.0000" stroke="black" stroke-width="0.0080"/>
<line x1="1.0000" y1="14.0000" x2="21.0000" y2="14.0000" stroke="black" stroke-width="0.0080"/>
<line x1="1.0000" y1="15.0000" x2="21.0000" y2="15.0000" stroke="black" stroke-width="0.0080"/>
<line x1="1.0000" y1="16.0000" x2="21.0000" y2="16.0000" stroke="black" stroke-width="0.0080"/>
<line x1="1.0000" y1="17.0000" x2="21.0000" y2="17.0000" stroke="black" stroke-width="0.0080"/>
<line x1="1.0000" y1="18.0000" x2="21.0000" y2="18.0000" stroke="black" stroke-width="0.0080"/>
<line x1="1.0000" y1="19.0000" x2="21.0000" y2="19.0000" stroke="black" stroke-width="0.0080"/>
<line x1="1.0000" y1="20.0000" x2="21.0000" y2="20.0000" stroke="black" stroke-width="0.0080"/>
<line x1="1.0000" y1="21.0000" x2="21.0000" y2="21.0000" stroke="black" stroke-width="0.0080"/>
<rect x="1.0000" y="1.0000" width="20.0000" height="20.0000" fill="none" stroke="black" stroke-width="0.0700"/>
<path fill-rule="evenodd" fill="black" d="M15.0000,11.0000 L11.0000,15.0000 L7.0000,11.0000 L11.0000,7.0000 Z M14.5200,11.0000 L11.0000,14.5200 L7.4800,11.0000 L11.0000,7.4800 Z"/>
<rect x="15.0000" y="10.7600" width="0.8800" height="0.4800" fill="black"/>
<rect x="6.1200" y="10.7600" width="0.8800" height="0.4800" fill="black"/>
<rect x="10.7600" y="6.1200" width="0.4800" height="0.8800" fill="black"/>
<rect x="10.7600" y="15.0000" width="0.4800" height="0.8800" fill="black"/>
<path fill-rule="evenodd" fill="black" d="M13.4000,11.0000 L11.0000,13.4000 L8.6000,11.0000 L11.0000,8.6000 Z M13.0160,11.0000 L11.0000,13.0160 L8.9840,11.0000 L11.0000,8.9840 Z"/>
<polygon points="11.5000,11.0000 11.0000,11.5000 10.5000,11.0000 11.0000,10.5000" fill="#E8622C"/>
<line x1="10.9400" y1="11.0000" x2="11.0600" y2="11.0000" stroke="black" stroke-width="0.02"/>
<line x1="11.0000" y1="10.9400" x2="11.0000" y2="11.0600" stroke="black" stroke-width="0.02"/>
<path fill-rule="evenodd" fill="black" d="M7.0000,5.0000 L5.0000,7.0000 L3.0000,5.0000 L5.0000,3.0000 Z M6.7600,5.0000 L5.0000,6.7600 L3.2400,5.0000 L5.0000,3.2400 Z"/>
<rect x="7.0000" y="4.8800" width="0.4400" height="0.2400" fill="black"/>
<rect x="2.5600" y="4.8800" width="0.4400" height="0.2400" fill="black"/>
<rect x="4.8800" y="2.5600" width="0.2400" height="0.4400" fill="black"/>
<rect x="4.8800" y="7.0000" width="0.2400" height="0.4400" fill="black"/>
<path fill-rule="evenodd" fill="black" d="M6.2000,5.0000 L5.0000,6.2000 L3.8000,5.0000 L5.0000,3.8000 Z M6.0080,5.0000 L5.0000,6.0080 L3.9920,5.0000 L5.0000,3.9920 Z"/>
<polygon points="5.5000,5.0000 5.0000,5.5000 4.5000,5.0000 5.0000,4.5000" fill="#E8622C"/>
<line x1="4.9400" y1="5.0000" x2="5.0600" y2="5.0000" stroke="black" stroke-width="0.02"/>
<line x1="5.0000" y1="4.9400" x2="5.0000" y2="5.0600" stroke="black" stroke-width="0.02"/>
<path fill-rule="evenodd" fill="black" d="M19.0000,5.0000 L17.0000,7.0000 L15.0000,5.0000 L17.0000,3.0000 Z M18.7600,5.0000 L17.0000,6.7600 L15.2400,5.0000 L17.0000,3.2400 Z"/>
<rect x="19.0000" y="4.8800" width="0.4400" height="0.2400" fill="black"/>
<rect x="14.5600" y="4.8800" width="0.4400" height="0.2400" fill="black"/>
<rect x="16.8800" y="2.5600" width="0.2400" height="0.4400" fill="black"/>
<rect x="16.8800" y="7.0000" width="0.2400" height="0.4400" fill="black"/>
<path fill-rule="evenodd" fill="black" d="M18.2000,5.0000 L17.0000,6.2000 L15.8000,5.0000 L17.0000,3.8000 Z M18.0080,5.0000 L17.0000,6.0080 L15.9920,5.0000 L17.0000,3.9920 Z"/>
<polygon points="17.5000,5.0000 17.0000,5.5000 16.5000,5.0000 17.0000,4.5000" fill="#E8622C"/>
<line x1="16.9400" y1="5.0000" x2="17.0600" y2="5.0000" stroke="black" stroke-width="0.02"/>
<line x1="17.0000" y1="4.9400" x2="17.0000" y2="5.0600" stroke="black" stroke-width="0.02"/>
<path fill-rule="evenodd" fill="black" d="M7.0000,17.0000 L5.0000,19.0000 L3.0000,17.0000 L5.0000,15.0000 Z M6.7600,17.0000 L5.0000,18.7600 L3.2400,17.0000 L5.0000,15.2400 Z"/>
<rect x="7.0000" y="16.8800" width="0.4400" height="0.2400" fill="black"/>
<rect x="2.5600" y="16.8800" width="0.4400" height="0.2400" fill="black"/>
<rect x="4.8800" y="14.5600" width="0.2400" height="0.4400" fill="black"/>
<rect x="4.8800" y="19.0000" width="0.2400" height="0.4400" fill="black"/>
<path fill-rule="evenodd" fill="black" d="M6.2000,17.0000 L5.0000,18.2000 L3.8000,17.0000 L5.0000,15.8000 Z M6.0080,17.0000 L5.0000,18.0080 L3.9920,17.0000 L5.0000,15.9920 Z"/>
<polygon points="5.5000,17.0000 5.0000,17.5000 4.5000,17.0000 5.0000,16.5000" fill="#E8622C"/>
<line x1="4.9400" y1="17.0000" x2="5.0600" y2="17.0000" stroke="black" stroke-width="0.02"/>
<line x1="5.0000" y1="16.9400" x2="5.0000" y2="17.0600" stroke="black" stroke-width="0.02"/>
<path fill-rule="evenodd" fill="black" d="M19.0000,17.0000 L17.0000,19.0000 L15.0000,17.0000 L17.0000,15.0000 Z M18.7600,17.0000 L17.0000,18.7600 L15.2400,17.0000 L17.0000,15.2400 Z"/>
<rect x="19.0000" y="16.8800" width="0.4400" height="0.2400" fill="black"/>
<rect x="14.5600" y="16.8800" width="0.4400" height="0.2400" fill="black"/>
<rect x="16.8800" y="14.5600" width="0.2400" height="0.4400" fill="black"/>
<rect x="16.8800" y="19.0000" width="0.2400" height="0.4400" fill="black"/>
<path fill-rule="evenodd" fill="black" d="M18.2000,17.0000 L17.0000,18.2000 L15.8000,17.0000 L17.0000,15.8000 Z M18.0080,17.0000 L17.0000,18.0080 L15.9920,17.0000 L17.0000,15.9920 Z"/>
<polygon points="17.5000,17.0000 17.0000,17.5000 16.5000,17.0000 17.0000,16.5000" fill="#E8622C"/>
<line x1="16.9400" y1="17.0000" x2="17.0600" y2="17.0000" stroke="black" stroke-width="0.02"/>
<line x1="17.0000" y1="16.9400" x2="17.0000" y2="17.0600" stroke="black" stroke-width="0.02"/>
</svg>