<svg xmlns="http://www.w3.org/2000/svg" width="44.0cm" height="44.0cm" viewBox="0 0 44.0 44.0">
<rect x="0" y="0" width="44.0" height="44.0" fill="white"/>
<line x1="2.0000" y1="2.0000" x2="2.0000" y2="42.0000" stroke="black" stroke-width="0.0160"/>
<line x1="4.0000" y1="2.0000" x2="4.0000" y2="42.0000" stroke="black" stroke-width="0.0160"/>
<line x1="6.0000" y1="2.0000" x2="6.0000" y2="42.0000" stroke="black" stroke-width="0.0160"/>
<line x1="8.0000" y1="2.0000" x2="8.0000" y2="42.0000" stroke="black" stroke-width="0.0160"/>
<line x1="10.0000" y1="2.0000" x2="10.0000" y2="42.0000" stroke="black" stroke-width="0.0160"/>
<line x1="12.0000" y1="2.0000" x2="12.0000" y2="42.0000" stroke="black" stroke-width="0.0160"/>
<line x1="14.0000" y1="2.0000" x2="14.0000" y2="42.0000" stroke="black" stroke-width="0.0160"/>
<line x1="16.0000" y1="2.0000" x2="16.0000" y2="42.0000" stroke="black" stroke-width="0.0160"/>
<line x1="18.0000" y1="2.0000" x2="18.0000" y2="42.0000" stroke="black" stroke-width="0.0160"/>
<line x1="20.0000" y1="2.0000" x2="20.0000" y2="42.0000" stroke="black" stroke-width="0.0160"/>
<line x1="22.0000" y1="2.0000" x2="22.0000" y2="42.0000" stroke="black" stroke-width="0.0900"/>
<line x1="24.0000" y1="2.0000" x2="24.0000" y2="42.0000" stroke="black" stroke-width="0.0160"/>
<line x1="26.0000" y1="2.0000" x2="26.0000" y2="42.0000" stroke="black" stroke-width="0.0160"/>
<line x1="28.0000" y1="2.0000" x2="28.0000" y2="42.0000" stroke="black" stroke-width="0.0160"/>
<line x1="30.0000" y1="2.0000" x2="30.0000" y2="42.0000" stroke="black" stroke-width="0.0160"/>
<line x1="32.0000" y1="2.0000" x2="32.0000" y2="42.0000" stroke="black" stroke-width="0.0160"/>
<line x1="34.0000" y1="2.0000" x2="34.0000" y2="42.0000" stroke="black" stroke-width="0.0160"/>
<line x1="36.0000" y1="2.0000" x2="36.0000" y2="42.0000" stroke="black" stroke-width="0.0160"/>
<line x1="38.0000" y1="2.0000" x2="38.0000" y2="42.0000" stroke="black" stroke-width="0.0160"/>
<line x1="40.0000" y1="2.0000" x2="40.0000" y2="42.0000" stroke="black" stroke-width="0.0160"/>
<line x1="42.0000" y1="2.0000" x2="42.0000" y2="42.0000" stroke="black" stroke-width="0.0160"/>
<line x1="2.0000" y1="2.0000" x2="42.0000" y2="2.0000" stroke="black" stroke-width="0.0160"/>
<line x1="2.0000" y1="4.0000" x2="42.0000" y2="4.0000" stroke="black" stroke-width="0.0160"/>
<line x1="2.0000" y1="6.0000" x2="42.0000" y2="6.0000" stroke="black" stroke-width="0.0160"/>
<line x1="2.0000" y1="8.0000" x2="42.0000" y2="8.0000" stroke="black" stroke-width="0.0160"/>
<line x1="2.0000" y1="10.0000" x2="42.0000" y2="10.0000" stroke="black" stroke-width="0.0160"/>
<line x1="2.0000" y1="12.0000" x2="42.0000" y2="12.0000" stroke="black" stroke-width="0.0160"/>
<line x1="2.0000" y1="14.0000" x2="42.0000" y2="14.0000" stroke="black" stroke-width="0.0160"/>
<line x1="2.0000" y1="16.0000" x2="42.0000" y2="16.0000" stroke="black" stroke-width="0.0160"/>
<line x1="2.0000" y1="18.0000" x2="42.0000" y2="18.0000" stroke="black" stroke-width="0.0160"/>
<line x1="2.0000" y1="20.0000" x2="42.0000" y2="20.0000" stroke="black" stroke-width="0.0160"/>
<line x1="2.0000" y1="22.0000" x2="42.0000" y2="22.0000" stroke="black" stroke-width="0.0900"/>
<line x1="2.0000" y1="24.0000" x2="42.0000" y2="24.0000" stroke="black" stroke-width="0.0160"/>
<line x1="2.0000" y1="26.0000" x2="42.0000" y2="26.0000" stroke="black" stroke-width="0.0160"/>
<line x1="2.0000" y1="28.0000" x2="42.0000" y2="28.0000" stroke="black" stroke-width="0.0160"/>
<line x1="2.0000" y1="30.0000" x2="42.0000" y2="30.0000" stroke="black" stroke-width="0.0160"/>
<line x1="2.0000" y1="32.0000" x2="42.0000" y2="32.0000" stroke="black" stroke-width="0.0160"/>
<line x1="2.0000" y1="34.0000" x2="42.0000" y2="34.0000" stroke="black" stroke-width="0.0160"/>
<line x1="2.0000" y1="36.0000" x2="42.0000" y2="36.0000" stroke="black" stroke-width="0.0160"/>
<line x1="2.0000" y1="38.0000" x2="42.0000" y2="38.0000" stroke="black" stroke-width="0.0160"/>
<line x1="2.0000" y1="40.0000" x2="42.0000" y2="40.0000" stroke="black" stroke-width="0.0160"/>
<line x1="2.0000" y1="42.0000" x2="42.0000" y2="42.0000" stroke="black" stroke-width="0.0160"/>
<rect x="2.0000" y="2.0000" width="40.0000" height="40.0000" fill="none" stroke="black" stroke-width="0.1400"/>
<path fill-rule="evenodd" fill="black" d="M30.0000,22.0000 L22.0000,30.0000 L14.0000,22.0000 L22.0000,14.0000 Z M29.0400,22.0000 L22.0000,29.0400 L14.9600,22.0000 L22.0000,14.9600 Z"/>
<rect x="30.0000" y="21.5200" width="1.7600" height="0.9600" fill="black"/>
<rect x="12.2400" y="21.5200" width="1.7600" height="0.9600" fill="black"/>
<rect x="21.5200" y="12.2400" width="0.9600" height="1.7600" fill="black"/>
<rect x="21.5200" y="30.0000" width="0.9600" height="1.7600" fill="black"/>
<path fill-rule="evenodd" fill="black" d="M26.8000,22.0000 L22.0000,26.8000 L17.2000,22.0000 L22.0000,17.2000 Z M26.0320,22.0000 L22.0000,26.0320 L17.9680,22.0000 L22.0000,17.9680 Z"/>
<polygon points="23.0000,22.0000 22.0000,23.0000 21.0000,22.0000 22.0000,21.0000" fill="#E8622C"/>
<line x1="21.9400" y1="22.0000" x2="22.0600" y2="22.0000" stroke="black" stroke-width="0.02"/>
<line x1="22.0000" y1="21.9400" x2="22.0000" y2="22.0600" stroke="black" stroke-width="0.02"/>
<path fill-rule="evenodd" fill="black" d="M14.0000,10.0000 L10.0000,14.0000 L6.0000,10.0000 L10.0000,6.0000 Z M13.5200,10.0000 L10.0000,13.5200 L6.4800,10.0000 L10.0000,6.4800 Z"/>
<rect x="14.0000" y="9.7600" width="0.8800" height="0.4800" fill="black"/>
<rect x="5.1200" y="9.7600" width="0.8800" height="0.4800" fill="black"/>
<rect x="9.7600" y="5.1200" width="0.4800" height="0.8800" fill="black"/>
<rect x="9.7600" y="14.0000" width="0.4800" height="0.8800" fill="black"/>
<path fill-rule="evenodd" fill="black" d="M12.4000,10.0000 L10.0000,12.4000 L7.6000,10.0000 L10.0000,7.6000 Z M12.0160,10.0000 L10.0000,12.0160 L7.9840,10.0000 L10.0000,7.9840 Z"/>
<polygon points="11.0000,10.0000 10.0000,11.0000 9.0000,10.0000 10.0000,9.0000" fill="#E8622C"/>
<line x1="9.9400" y1="10.0000" x2="10.0600" y2="10.0000" stroke="black" stroke-width="0.02"/>
<line x1="10.0000" y1="9.9400" x2="10.0000" y2="10.0600" stroke="black" stroke-width="0.02"/>
<path fill-rule="evenodd" fill="black" d="M38.0000,10.0000 L34.0000,14.0000 L30.0000,10.0000 L34.0000,6.0000 Z M37.5200,10.0000 L34.0000,13.5200 L30.4800,10.0000 L34.0000,6.4800 Z"/>
<rect x="38.0000" y="9.7600" width="0.8800" height="0.4800" fill="black"/>
<rect x="29.1200" y="9.7600" width="0.8800" height="0.4800" fill="black"/>
<rect x="33.7600" y="5.1200" width="0.4800" height="0.8800" fill="black"/>
<rect x="33.7600" y="14.0000" width="0.4800" height="0.8800" fill="black"/>
<path fill-rule="evenodd" fill="black" d="M36.4000,10.0000 L34.0000,12.4000 L31.6000,10.0000 L34.0000,7.6000 Z M36.0160,10.0000 L34.0000,12.0160 L31.9840,10.0000 L34.0000,7.9840 Z"/>
<polygon points="35.0000,10.0000 34.0000,11.0000 33.0000,10.0000 34.0000,9.0000" fill="#E8622C"/>
<line x1="33.9400" y1="10.0000" x2="34.0600" y2="10.0000" stroke="black" stroke-width="0.02"/>
<line x1="34.0000" y1="9.9400" x2="34.0000" y2="10.0600" stroke="black" stroke-width="0.02"/>
<path fill-rule="evenodd" fill="black" d="M14.0000,34.0000 L10.0000,38.0000 L6.0000,34.0000 L10.0000,30.0000 Z M13.5200,34.0000 L10.0000,37.5200 L6.4800,34.0000 L10.0000,30.4800 Z"/>
<rect x="14.0000" y="33.7600" width="0.8800" height="0.4800" fill="black"/>
<rect x="5.1200" y="33.7600" width="0.8800" height="0.4800" fill="black"/>
<rect x="9.7600" y="29.1200" width="0.4800" height="0.8800" fill="black"/>
<rect x="9.7600" y="38.0000" width="0.4800" height="0.8800" fill="black"/>
<path fill-rule="evenodd" fill="black" d="M12.4000,34.0000 L10.0000,36.4000 L7.6000,34.0000 L10.0000,31.6000 Z M12.0160,34.0000 L10.0000,36.0160 L7.9840,34.0000 L10.0000,31.9840 Z"/>
<polygon points="11.0000,34.0000 10.0000,35.0000 9.0000,34.0000 10.0000,33.0000" fill="#E8622C"/>
<line x1="9.9400" y1="34.0000" x2="10.0600" y2="34.0000" stroke="black" stroke-width="0.02"/>
<line x1="10.0000" y1="33.9400" x2="10.0000" y2="34.0600" stroke="black" stroke-width="0.02"/>
<path fill-rule="evenodd" fill="black" d="M38.0000,34.0000 L34.0000,38.0000 L30.0000,34.0000 L34.0000,30.0000 Z M37.5200,34.0000 L34.0000,37.5200 L30.4800,34.0000 L34.0000,30.4800 Z"/>
<rect x="38.0000" y="33.7600" width="0.8800" height="0.4800" fill="black"/>
<rect x="29.1200" y="33.7600" width="0.8800" height="0.4800" fill="black"/>
<rect x="33.7600" y="29.1200" width="0.4800" height="0.8800" fill="black"/>
<rect x="33.7600" y="38.0000" width="0.4800" height="0.8800" fill="black"/>
<path fill-rule="evenodd" fill="black" d="M36.4000,34.0000 L34.0000,36.4000 L31.6000,34.0000 L34.0000,31.6000 Z M36.0160,34.0000 L34.0000,36.0160 L31.9840,34.0000 L34.0000,31.9840 Z"/>
<polygon points="35.0000,34.0000 34.0000,35.0000 33.0000,34.0000 34.0000,33.0000" fill="#E8622C"/>
<line x1="33.9400" y1="34.0000" x2="34.0600" y2="34.0000" stroke="black" stroke-width="0.02"/>
<line x1="34.0000" y1="33.9400" x2="34.0000" y2="34.0600" stroke="black" stroke-width="0.02"/>
</svg>